<svg width="23" height="27" viewBox="0 0 23 27" fill="none" xmlns="http://www.w3.org/2000/svg">
<path d="M21.0336 0C20.8355 0.10881 20.6193 0.179836 20.3959 0.209542C20.1869 0.228779 20.0648 0.375115 20.0112 0.586718C19.6516 2.00679 19.6184 3.43992 19.7147 4.89916C19.8321 6.67718 20.06 8.43664 20.3253 10.1947C20.5709 11.8047 20.7971 13.4173 21.0038 15.0327C21.0567 15.4395 21.0472 15.8531 21.2073 16.2405C21.2854 16.4308 21.3579 16.5463 21.6049 16.3924C21.9231 16.1822 22.2608 16.0039 22.6131 15.8599C22.8085 15.7864 22.911 15.6222 22.9361 15.414C22.9517 15.2897 22.9361 15.1612 23.0039 15.0458V14.3588C22.8594 13.4162 22.7325 12.4715 22.6097 11.5262C22.4177 10.0601 22.1199 8.61046 21.9686 7.13611C21.8532 6.0142 21.765 4.89023 21.6538 3.76969C21.5662 2.92053 21.5764 2.05145 21.305 1.23664C21.1693 0.824427 21.2684 0.392977 21.1015 0H21.0336Z" fill="#FFDE21"/>
<path d="M8.27837 27.0001C8.36386 26.974 8.45206 26.9534 8.53483 26.9197C8.68817 26.8579 8.75941 26.7858 8.68545 26.5824C8.55519 26.1993 8.44535 25.8095 8.3564 25.4145C8.3089 25.2194 8.21731 25.0813 8.0287 25.0146C6.31625 24.4087 4.75781 23.4908 3.19666 22.5784C2.79637 22.3442 2.3825 22.1394 1.97542 21.9086C1.34309 21.5458 0.670056 21.6523 -0.000946999 21.7114V21.7801C0.0913248 21.9897 0.156456 22.2013 0.127961 22.439C0.108285 22.6018 0.127962 22.7639 0.322003 22.8306C0.427165 22.867 0.469231 22.968 0.525543 23.0518C0.765185 23.4136 1.08188 23.7165 1.45233 23.9381C1.94964 24.23 2.43882 24.5358 2.94495 24.8126C4.54681 25.6886 6.08014 26.7253 7.93914 27.0001H8.27837Z" fill="#FFDE21"/>
<path d="M2.62528 6.6209C2.60493 6.78372 2.68227 6.87853 2.76708 6.97471C3.35938 7.64868 3.89876 8.36662 4.50124 9.03578C4.92325 9.50296 5.22991 10.0766 5.58679 10.6022C6.42537 11.8354 7.3508 13.0013 8.28776 14.1562C9.17655 15.2492 10.0952 16.3134 11.0695 17.3288C11.5519 17.8311 12.1048 18.2446 12.6401 18.6809C13.0072 18.9804 13.2507 18.8437 13.3647 18.3202C13.4421 17.9712 13.4753 17.6119 13.6144 17.2746C13.7297 16.9963 13.5622 16.7936 13.3796 16.6109C12.2887 15.535 11.2907 14.3746 10.2919 13.2129C9.26543 12.0182 8.29251 10.7774 7.20968 9.62868C6.5882 8.96914 5.86903 8.44838 5.19667 7.86166C4.59666 7.32359 4.03019 6.74837 3.5005 6.1393C3.45505 6.08846 3.41773 6.03006 3.37227 5.97991C3.04254 5.61784 2.97741 5.63227 2.82543 6.10838C2.76912 6.28907 2.60629 6.43128 2.62528 6.6209Z" fill="#FFDE21"/>
</svg>
