<svg xmlns="http://www.w3.org/2000/svg" version="1.1" xmlns:xlink="http://www.w3.org/1999/xlink" xmlns:svgjs="http://svgjs.dev/svgjs" width="36" height="36"><svg width="36" height="36" viewBox="0 0 36 36" fill="none" xmlns="http://www.w3.org/2000/svg">
<rect width="36" height="36" rx="8" fill="#FFDE21"></rect>
<path d="M27.9991 12.0059L24.7213 12.0059C24.7213 12.0059 21.9702 11.9889 21.2874 12.0126V15.0768L25.1479 15.087C25.1479 15.087 25.1324 15.4318 24.9894 15.8958C24.0746 18.8652 20.8757 21.0427 17.8021 21.0472C14.6784 21.0529 12.2633 18.878 11.3228 15.8657C11.0785 15.0813 10.9201 12.803 10.9201 12.0059H8.00011C7.99785 12.1679 8.03057 13.8331 8.03726 14.0114C8.09196 15.4659 8.44834 16.8926 9.08328 18.1987C9.71823 19.5049 10.6175 20.6615 11.7229 21.5933C12.8282 22.5252 14.1149 23.2115 15.4993 23.6078C16.8838 24.0041 17.8306 24.1014 19.2547 23.8936C24.2249 23.195 28.0683 18.6929 27.9991 13.639V12.0059Z" fill="#262626"></path>
</svg><style>@media (prefers-color-scheme: light) { :root { filter: none; } }
@media (prefers-color-scheme: dark) { :root { filter: none; } }
</style></svg>